<?xml version="1.0" encoding="utf-8"?>
<!-- Generator: Adobe Illustrator 16.0.0, SVG Export Plug-In . SVG Version: 6.00 Build 0)  -->
<!DOCTYPE svg PUBLIC "-//W3C//DTD SVG 1.1//EN" "http://www.w3.org/Graphics/SVG/1.1/DTD/svg11.dtd">
<svg version="1.1" id="Layer_1" xmlns="http://www.w3.org/2000/svg" xmlns:xlink="http://www.w3.org/1999/xlink" x="0px" y="0px"
	 width="16px" height="16px" viewBox="0 0 16 16" enable-background="new 0 0 16 16" xml:space="preserve">
<path fill="none" stroke="#00CCFF" stroke-width="0.7" stroke-miterlimit="10" d="M6.677,14.589l-0.005,0.004l-0.141,0.1
	L6.06,15.025c-0.132,0.093-0.312,0.108-0.463,0.039c-0.151-0.071-0.242-0.214-0.242-0.372v-0.554v-0.165v-0.008v-0.104v-1.247H4.032
	H2.709c-0.973,0-1.763-0.745-1.763-1.662V3.471c0-0.917,0.791-1.662,1.763-1.662H13.29c0.974,0,1.764,0.746,1.764,1.662v7.481
	c0,0.917-0.79,1.662-1.764,1.662H9.469L6.677,14.589z"/>
<path fill="#00CCFF" d="M8.004,3.819c-1.889,0-3.418,1.406-3.418,3.14v0.605c0,0.201-0.176,0.363-0.395,0.363
	c-0.218,0-0.394-0.163-0.394-0.363V6.959c0-2.135,1.883-3.865,4.207-3.865c2.322,0,4.206,1.73,4.206,3.865v2.177
	c0,0.734-0.647,1.329-1.447,1.329L8.951,11.42c-0.138,0.217-0.391,0.362-0.685,0.362H7.741c-0.436,0-0.789-0.325-0.789-0.725
	c0-0.4,0.353-0.726,0.789-0.726h0.526c0.294,0,0.547,0.146,0.685,0.362l1.813-0.954c0.362,0,0.656-0.271,0.656-0.604V6.959
	C11.421,5.225,9.891,3.819,8.004,3.819z"/>
<path fill="#00CCFF" d="M3.93,6.959h0.263c0.291,0,0.526,0.216,0.526,0.484v1.691c0,0.267-0.235,0.481-0.526,0.481H3.93
	c-0.581,0-1.052-0.432-1.052-0.964V7.927C2.878,7.393,3.349,6.959,3.93,6.959z"/>
<path fill="#00CCFF" d="M12.266,6.887c0.579,0,1.051,0.434,1.051,0.967v0.725c0,0.533-0.472,0.965-1.051,0.965h-0.263
	c-0.291,0-0.526-0.216-0.526-0.482V7.37c0-0.267,0.235-0.483,0.526-0.483H12.266z"/>
</svg>
